<svg width="8" height="15" viewBox="0 0 8 15" fill="none" xmlns="http://www.w3.org/2000/svg">
<path d="M0.373241 8.24327H2.03013V14.533C2.03013 14.5926 2.05583 14.6497 2.10156 14.6919C2.14729 14.734 2.2093 14.7577 2.27397 14.7577H5.0841C5.14877 14.7577 5.21078 14.734 5.25651 14.6919C5.30224 14.6497 5.32794 14.5926 5.32794 14.533V8.27275H7.23366C7.29342 8.27266 7.35107 8.25235 7.39565 8.21567C7.44023 8.17899 7.46865 8.1285 7.47551 8.07378L7.76531 5.75798C7.76925 5.72653 7.76594 5.69466 7.75559 5.66447C7.74524 5.63428 7.72809 5.60644 7.70526 5.58279C7.68242 5.55913 7.65442 5.54019 7.6231 5.5272C7.59177 5.51421 7.55781 5.50747 7.52346 5.50742H5.32493V4.0566C5.32493 3.61904 5.58077 3.39704 6.08443 3.39704H7.51947C7.58414 3.39704 7.64615 3.37336 7.69188 3.33121C7.73761 3.28906 7.76331 3.23189 7.76331 3.17228V1.04716C7.76384 0.987866 7.73894 0.930777 7.69402 0.888332C7.64909 0.845888 7.58778 0.821527 7.52346 0.820557H5.5438H5.45285C4.54124 0.823522 3.66134 1.12931 2.97451 1.68184C2.65041 1.94292 2.40174 2.27412 2.25086 2.64569C2.09997 3.01727 2.0516 3.41757 2.11008 3.81065V5.50834H0.370237C0.305567 5.50834 0.243549 5.53202 0.197821 5.57418C0.152092 5.61633 0.126404 5.6735 0.126404 5.73311V8.01851C0.126401 8.04826 0.132802 8.07771 0.145243 8.10516C0.157684 8.13262 0.17592 8.15752 0.19888 8.17843C0.221841 8.19933 0.249074 8.21583 0.279004 8.22696C0.308935 8.23809 0.340968 8.24364 0.373241 8.24327Z" fill="#385C8E"/>
</svg>
