<svg width="15" height="12" viewBox="0 0 15 12" fill="none" xmlns="http://www.w3.org/2000/svg">
<path d="M14.6491 1.95881C14.0992 2.18 13.5176 2.32705 12.9222 2.39544C13.5499 2.05234 14.0193 1.50892 14.2413 0.868153C13.6543 1.18906 13.0122 1.41523 12.3426 1.53692C11.9317 1.13157 11.398 0.849598 10.8108 0.727697C10.2237 0.605796 9.61034 0.649607 9.05059 0.85343C8.49083 1.05725 8.01059 1.41165 7.67234 1.87051C7.33409 2.32937 7.1535 2.87145 7.15406 3.42622C7.15187 3.63799 7.17533 3.84932 7.22402 4.05629C6.03143 4.00232 4.86464 3.71696 3.7999 3.21885C2.73516 2.72074 1.79645 2.02111 1.04514 1.16569C0.659292 1.77356 0.539786 2.49429 0.711032 3.18065C0.882278 3.867 1.33135 4.4672 1.96652 4.85862C1.49212 4.84702 1.02771 4.73044 0.612427 4.51872V4.54911C0.613069 5.18681 0.85184 5.80486 1.28861 6.29939C1.72538 6.79392 2.33352 7.13479 3.01083 7.26469C2.75426 7.32742 2.48978 7.3584 2.22435 7.35681C2.03386 7.36 1.84355 7.34425 1.65673 7.30983C1.8502 7.85789 2.2231 8.33724 2.72416 8.68199C3.22522 9.02673 3.82983 9.21995 4.45486 9.23506C3.39497 9.99842 2.0884 10.4128 0.743339 10.4123C0.503536 10.4139 0.263871 10.4012 0.0258179 10.3745C1.39607 11.1884 2.99269 11.619 4.62275 11.6144C5.74525 11.6216 6.85811 11.4232 7.89671 11.0306C8.93531 10.6381 9.87893 10.0592 10.6728 9.32761C11.4666 8.59604 12.0948 7.72636 12.521 6.7691C12.9471 5.81185 13.1626 4.78608 13.1551 3.75139C13.1551 3.62887 13.1551 3.51096 13.1441 3.39398C13.7363 3.004 14.2463 2.51764 14.6491 1.95881Z" fill="#03A9F4"/>
</svg>
