<svg width="182" height="44" viewBox="0 0 182 44" fill="none" xmlns="http://www.w3.org/2000/svg">
<rect width="51" height="44" rx="16" fill="#40BFFF"/>
<path fill-rule="evenodd" clip-rule="evenodd" d="M36.0035 20.2715C37.11 21.2261 37.11 22.7739 36.0035 23.7285L27.5035 31.0618C26.397 32.0164 24.603 32.0164 23.4965 31.0618L14.9965 23.7285C13.8901 22.7739 13.8901 21.2261 14.9965 20.2715L23.4965 12.9382C24.603 11.9836 26.397 11.9836 27.5035 12.9382L36.0035 20.2715ZM25.5 18.1236L21.0069 22L25.5 25.8764L29.9931 22L25.5 18.1236Z" fill="white"/>
<path d="M63.592 16.44V19.848H69.088V23.016H63.592V26.712H69.808V30H59.488V13.152H69.808V16.44H63.592ZM82.7924 19.872V23.28H72.2324V19.872H82.7924ZM85.6982 21.552C85.6982 19.888 86.0583 18.408 86.7783 17.112C87.4983 15.8 88.4983 14.784 89.7783 14.064C91.0743 13.328 92.5383 12.96 94.1703 12.96C96.1703 12.96 97.8823 13.488 99.3063 14.544C100.73 15.6 101.682 17.04 102.162 18.864H97.6503C97.3143 18.16 96.8343 17.624 96.2103 17.256C95.6023 16.888 94.9063 16.704 94.1223 16.704C92.8583 16.704 91.8343 17.144 91.0503 18.024C90.2663 18.904 89.8743 20.08 89.8743 21.552C89.8743 23.024 90.2663 24.2 91.0503 25.08C91.8343 25.96 92.8583 26.4 94.1223 26.4C94.9063 26.4 95.6023 26.216 96.2103 25.848C96.8343 25.48 97.3143 24.944 97.6503 24.24H102.162C101.682 26.064 100.73 27.504 99.3063 28.56C97.8823 29.6 96.1703 30.12 94.1703 30.12C92.5383 30.12 91.0743 29.76 89.7783 29.04C88.4983 28.304 87.4983 27.288 86.7783 25.992C86.0583 24.696 85.6982 23.216 85.6982 21.552ZM110.772 30.192C109.46 30.192 108.276 29.912 107.22 29.352C106.18 28.792 105.356 27.992 104.748 26.952C104.156 25.912 103.86 24.696 103.86 23.304C103.86 21.928 104.164 20.72 104.771 19.68C105.38 18.624 106.212 17.816 107.268 17.256C108.324 16.696 109.508 16.416 110.82 16.416C112.132 16.416 113.316 16.696 114.372 17.256C115.428 17.816 116.26 18.624 116.868 19.68C117.476 20.72 117.78 21.928 117.78 23.304C117.78 24.68 117.468 25.896 116.844 26.952C116.236 27.992 115.396 28.792 114.324 29.352C113.268 29.912 112.084 30.192 110.772 30.192ZM110.772 26.64C111.556 26.64 112.22 26.352 112.764 25.776C113.324 25.2 113.604 24.376 113.604 23.304C113.604 22.232 113.332 21.408 112.788 20.832C112.26 20.256 111.604 19.968 110.82 19.968C110.02 19.968 109.356 20.256 108.828 20.832C108.3 21.392 108.036 22.216 108.036 23.304C108.036 24.376 108.292 25.2 108.804 25.776C109.332 26.352 109.988 26.64 110.772 26.64ZM137.045 16.464C138.709 16.464 140.029 16.968 141.005 17.976C141.997 18.984 142.493 20.384 142.493 22.176V30H138.413V22.728C138.413 21.864 138.181 21.2 137.717 20.736C137.269 20.256 136.645 20.016 135.845 20.016C135.045 20.016 134.413 20.256 133.949 20.736C133.501 21.2 133.277 21.864 133.277 22.728V30H129.197V22.728C129.197 21.864 128.965 21.2 128.501 20.736C128.053 20.256 127.429 20.016 126.629 20.016C125.829 20.016 125.197 20.256 124.733 20.736C124.285 21.2 124.061 21.864 124.061 22.728V30H119.957V16.608H124.061V18.288C124.477 17.728 125.021 17.288 125.693 16.968C126.365 16.632 127.125 16.464 127.973 16.464C128.981 16.464 129.877 16.68 130.661 17.112C131.461 17.544 132.085 18.16 132.533 18.96C132.997 18.224 133.629 17.624 134.429 17.16C135.229 16.696 136.101 16.464 137.045 16.464ZM162.451 16.464C164.115 16.464 165.435 16.968 166.411 17.976C167.403 18.984 167.899 20.384 167.899 22.176V30H163.819V22.728C163.819 21.864 163.587 21.2 163.123 20.736C162.675 20.256 162.051 20.016 161.251 20.016C160.451 20.016 159.819 20.256 159.355 20.736C158.907 21.2 158.683 21.864 158.683 22.728V30H154.603V22.728C154.603 21.864 154.371 21.2 153.907 20.736C153.459 20.256 152.835 20.016 152.035 20.016C151.235 20.016 150.603 20.256 150.139 20.736C149.691 21.2 149.467 21.864 149.467 22.728V30H145.363V16.608H149.467V18.288C149.883 17.728 150.427 17.288 151.099 16.968C151.771 16.632 152.531 16.464 153.379 16.464C154.387 16.464 155.283 16.68 156.067 17.112C156.867 17.544 157.491 18.16 157.939 18.96C158.403 18.224 159.035 17.624 159.835 17.16C160.635 16.696 161.507 16.464 162.451 16.464Z" fill="#22262A"/>
</svg>
