<svg width="40" height="24" viewBox="0 0 40 24" fill="none" xmlns="http://www.w3.org/2000/svg">
<path d="M2.49509 0.137939H37.4447C37.8951 0.146404 38.3235 0.319218 38.6355 0.61876C38.9476 0.918303 39.1177 1.31994 39.1086 1.73513V21.7007C39.1177 22.1159 38.9476 22.517 38.6355 22.8166C38.3235 23.1161 37.8951 23.2894 37.4447 23.2979H2.49509C2.04466 23.2894 1.61626 23.1161 1.30423 22.8166C0.9922 22.517 0.822054 22.1159 0.831158 21.7007V1.73513C0.822054 1.31994 0.9922 0.918303 1.30423 0.61876C1.61626 0.319218 2.04466 0.146404 2.49509 0.137939Z" fill="#5870BE"/>
<path d="M17.575 11.714C17.5753 10.0783 18.1019 8.47936 19.0881 7.11945C20.0743 5.75954 21.4757 4.69972 23.1153 4.07395C24.7549 3.44819 26.5589 3.28465 28.2994 3.60392C30.0398 3.9232 31.6385 4.71098 32.8932 5.8677C34.148 7.02441 35.0024 8.4981 35.3486 10.1024C35.6948 11.7068 35.517 13.3697 34.838 14.881C34.1589 16.3922 33.0091 17.6837 31.5337 18.5926C30.0582 19.5015 28.3235 19.9867 26.5489 19.9869C25.3704 19.9869 24.2033 19.773 23.1145 19.3572C22.0256 18.9415 21.0363 18.3321 20.203 17.5639C19.3696 16.7957 18.7087 15.8838 18.2577 14.8801C17.8068 13.8763 17.5748 12.8004 17.575 11.714Z" fill="#FFAF38"/>
<path d="M12.7992 19.9851C11.2691 19.985 9.76451 19.6242 8.4283 18.9371C7.09209 18.25 5.96866 17.2594 5.16473 16.0594C4.3608 14.8594 3.90308 13.49 3.83505 12.081C3.76702 10.6721 4.09097 9.27023 4.77607 8.00914C5.46117 6.74805 6.48472 5.66973 7.74943 4.87593C9.01414 4.08214 10.478 3.5994 12.002 3.47395C13.526 3.34851 15.0595 3.5843 16.4568 4.15898C17.854 4.73365 19.0687 5.62815 19.9854 6.75739H18.7863V7.31017H20.3981C20.519 7.48612 20.633 7.66838 20.7389 7.85262H18.1866V8.4054H21.0277C21.1156 8.58963 21.1946 8.77396 21.2646 8.95819H17.587V9.51053H21.4524C21.9383 11.1446 21.8713 12.8767 21.2606 14.4748H17.587V15.0276H21.0237C20.9337 15.2183 20.8369 15.3959 20.7389 15.5718H18.1866V16.1246H20.3911C20.2582 16.3181 20.1194 16.5033 19.9785 16.6774H18.7863V17.2302H19.4857C18.6435 18.0964 17.6128 18.7894 16.4608 19.2641C15.3087 19.7388 14.0611 19.9844 12.7992 19.9851Z" fill="#E63737"/>
<path d="M2.89123 13.6964L3.48348 9.44252L4.33302 9.54302L4.92324 12.6744C4.97729 12.9659 5.01596 13.1838 5.03924 13.3282C5.10927 13.1791 5.21656 12.9608 5.36111 12.6731L6.79437 9.83418L7.55373 9.92401L6.96148 14.1779L6.41743 14.1135L6.91312 10.5532L5.17802 13.9669L4.66887 13.9067L3.93946 10.1394L3.43529 13.7608L2.89123 13.6964ZM9.87435 14.1361C9.65749 14.2776 9.45416 14.3715 9.26435 14.4179C9.07648 14.4645 8.87975 14.4756 8.67415 14.4513C8.33472 14.4111 8.08529 14.2981 7.92586 14.1121C7.7667 13.9241 7.70503 13.7015 7.74085 13.4442C7.76186 13.2934 7.81492 13.16 7.90005 13.0442C7.98738 12.9268 8.09158 12.8368 8.21264 12.7745C8.33564 12.7123 8.46966 12.6702 8.61469 12.648C8.72126 12.6331 8.88007 12.6253 9.09111 12.6247C9.52094 12.6245 9.8406 12.6013 10.0501 12.5553C10.062 12.484 10.0693 12.4386 10.072 12.4193C10.1016 12.2065 10.073 12.0507 9.98621 11.952C9.8688 11.8181 9.67821 11.7356 9.41442 11.7044C9.16809 11.6753 8.97971 11.6972 8.84928 11.7703C8.72105 11.8416 8.61359 11.9833 8.52691 12.1952L8.02455 12.065C8.10154 11.8519 8.20266 11.6849 8.32792 11.5641C8.45345 11.4413 8.62206 11.356 8.83374 11.3083C9.0457 11.2587 9.28454 11.2496 9.55026 11.281C9.81405 11.3122 10.0241 11.3685 10.1803 11.4499C10.3366 11.5313 10.4469 11.624 10.5113 11.728C10.5759 11.83 10.6138 11.9544 10.6249 12.1012C10.63 12.1923 10.6163 12.3539 10.584 12.586L10.4871 13.2824C10.4195 13.768 10.3873 14.0768 10.3906 14.209C10.3961 14.3394 10.4236 14.4675 10.4731 14.5933L9.92616 14.5286C9.88694 14.4139 9.86966 14.283 9.87435 14.1361ZM9.99311 12.9644C9.79226 13.0193 9.49798 13.0514 9.11027 13.0606C8.89067 13.0661 8.73356 13.0829 8.63895 13.111C8.54435 13.1391 8.46755 13.1881 8.40855 13.2578C8.34983 13.3255 8.31414 13.4049 8.30148 13.4958C8.28209 13.6351 8.3183 13.7574 8.41011 13.8626C8.50386 13.9681 8.65256 14.0329 8.85622 14.0569C9.05794 14.0808 9.24341 14.0585 9.41264 13.99C9.58213 13.9196 9.71437 13.8124 9.80936 13.6683C9.88203 13.5569 9.9344 13.3862 9.96645 13.156L9.99311 12.9644ZM11.0405 13.7254L11.5697 13.7055C11.57 13.9159 11.6284 14.084 11.7449 14.2099C11.8634 14.336 12.0419 14.4132 12.2805 14.4414C12.521 14.4698 12.7062 14.4426 12.836 14.3596C12.9661 14.2747 13.0404 14.1665 13.0587 14.035C13.0751 13.917 13.0366 13.818 12.9433 13.7382C12.878 13.6832 12.7077 13.6031 12.4326 13.4978C12.062 13.3557 11.8069 13.2409 11.6672 13.1536C11.5298 13.0646 11.4309 12.9536 11.3705 12.8206C11.3124 12.686 11.2938 12.5432 11.3148 12.3923C11.334 12.2549 11.3826 12.1319 11.4609 12.0232C11.5413 11.9127 11.6412 11.8253 11.7606 11.7607C11.8504 11.7104 11.968 11.6732 12.1133 11.6491C12.2608 11.6233 12.4151 11.6199 12.576 11.6389C12.8185 11.6676 13.026 11.7276 13.1987 11.8188C13.3732 11.9102 13.4958 12.021 13.5664 12.1513C13.6372 12.2796 13.6753 12.4454 13.6805 12.6485L13.1588 12.6576C13.1576 12.4962 13.1069 12.3644 13.0068 12.2621C12.9086 12.16 12.7577 12.0969 12.5541 12.0729C12.3136 12.0444 12.1364 12.0638 12.0225 12.1309C11.9087 12.1981 11.8444 12.2848 11.8296 12.3912C11.8201 12.4589 11.833 12.5224 11.8681 12.5816C11.903 12.6428 11.9634 12.6971 12.0495 12.7446C12.0992 12.7702 12.2472 12.8329 12.4935 12.9328C12.8502 13.0753 13.0969 13.1871 13.2335 13.2681C13.3722 13.3475 13.475 13.452 13.5417 13.5818C13.6084 13.7116 13.6294 13.8655 13.6046 14.0435C13.5803 14.2176 13.5061 14.376 13.3817 14.5186C13.2596 14.6594 13.0966 14.7611 12.8927 14.8235C12.6891 14.884 12.4661 14.8999 12.2236 14.8712C11.8221 14.8237 11.5272 14.7042 11.339 14.5129C11.1527 14.3217 11.0532 14.0592 11.0405 13.7254ZM15.3096 14.6906L15.321 15.1609C15.1693 15.1744 15.0352 15.1743 14.9189 15.1605C14.7288 15.138 14.5855 15.0906 14.4892 15.0182C14.3928 14.9459 14.33 14.8588 14.3008 14.757C14.2718 14.6533 14.2792 14.4448 14.3228 14.1314L14.5696 12.3585L14.1856 12.313L14.2422 11.9068L14.6262 11.9522L14.7324 11.1891L15.2969 10.9373L15.147 12.0138L15.6736 12.0761L15.617 12.4824L15.0904 12.4201L14.8395 14.222C14.8188 14.371 14.8142 14.4678 14.8257 14.5124C14.8392 14.5573 14.8646 14.5947 14.9018 14.6246C14.941 14.6548 14.9993 14.6745 15.0769 14.6837C15.1351 14.6906 15.2127 14.6929 15.3096 14.6906ZM18.0128 14.4765L18.5447 14.6072C18.4154 14.9125 18.2233 15.1385 17.9682 15.2853C17.7132 15.4321 17.4062 15.4842 17.0474 15.4418C16.5955 15.3883 16.2559 15.2076 16.0287 14.8995C15.8037 14.5897 15.7261 14.1844 15.7958 13.6833C15.868 13.1649 16.0579 12.7783 16.3654 12.5237C16.6729 12.2691 17.04 12.167 17.4667 12.2175C17.8799 12.2663 18.1978 12.4465 18.4206 12.758C18.6434 13.0695 18.7194 13.4796 18.6486 13.9883C18.6443 14.0193 18.6368 14.0656 18.6263 14.1273L16.322 13.8547C16.2943 14.1955 16.3542 14.4661 16.5018 14.6664C16.6494 14.8668 16.8521 14.9822 17.1101 15.0127C17.3021 15.0354 17.473 15.0045 17.6228 14.92C17.7726 14.8354 17.9026 14.6876 18.0128 14.4765ZM16.4109 13.4287L18.1362 13.6328C18.149 13.3708 18.1101 13.1686 18.0196 13.0261C17.8808 12.8052 17.6785 12.679 17.4128 12.6476C17.1723 12.6192 16.9584 12.6755 16.7712 12.8165C16.5859 12.9578 16.4658 13.1619 16.4109 13.4287ZM19.0704 15.6103L19.4994 12.5287L19.9708 12.5845L19.9057 13.0516C20.0564 12.8473 20.187 12.7162 20.2976 12.6585C20.4101 12.601 20.5274 12.5795 20.6496 12.594C20.8261 12.6149 20.9977 12.6922 21.1644 12.826L20.9166 13.2892C20.7991 13.1986 20.6763 13.1458 20.5483 13.1306C20.4339 13.1171 20.3262 13.1397 20.2254 13.1986C20.1248 13.2555 20.0466 13.3426 19.9908 13.4599C19.9068 13.6387 19.8494 13.8384 19.8187 14.0589L19.5941 15.6723L19.0704 15.6103ZM24.3782 14.7222L24.9229 14.9311C24.7402 15.3795 24.4777 15.7073 24.1353 15.9145C23.7952 16.1201 23.4031 16.1966 22.9589 16.144C22.4992 16.0897 22.1378 15.9525 21.8747 15.7326C21.6137 15.511 21.4323 15.2143 21.3303 14.8424C21.2302 14.4707 21.2084 14.0817 21.265 13.6755C21.3267 13.2325 21.4648 12.8566 21.6793 12.5477C21.896 12.2371 22.1724 12.0151 22.5084 11.8818C22.8466 11.7468 23.2038 11.7016 23.5801 11.7461C24.0068 11.7966 24.3505 11.9474 24.6113 12.1984C24.8721 12.4495 25.0324 12.7782 25.0921 13.1844L24.5182 13.2492C24.4624 12.928 24.3503 12.6857 24.1818 12.5222C24.0133 12.3587 23.7865 12.2601 23.5014 12.2264C23.1736 12.1876 22.8882 12.2335 22.6453 12.364C22.4043 12.4948 22.2208 12.6874 22.0946 12.9419C21.9688 13.1944 21.8863 13.4609 21.8473 13.7414C21.7969 14.1032 21.8053 14.4257 21.8723 14.7089C21.9415 14.9904 22.0784 15.2111 22.2829 15.3709C22.4873 15.5308 22.7195 15.6261 22.9794 15.6569C23.2956 15.6943 23.5759 15.635 23.8204 15.4791C24.0649 15.3232 24.2508 15.0709 24.3782 14.7222ZM27.4355 16.2135C27.2186 16.355 27.0153 16.4489 26.8255 16.4953C26.6376 16.5419 26.4409 16.553 26.2353 16.5287C25.8959 16.4885 25.6464 16.3755 25.487 16.1895C25.3279 16.0015 25.2662 15.7789 25.302 15.5216C25.323 15.3707 25.3761 15.2374 25.4612 15.1216C25.5485 15.0042 25.6527 14.9142 25.7738 14.8519C25.8968 14.7897 26.0308 14.7476 26.1758 14.7254C26.2824 14.7105 26.4412 14.7027 26.6523 14.7021C27.0821 14.7019 27.4017 14.6787 27.6112 14.6327C27.6231 14.5614 27.6304 14.516 27.6331 14.4967C27.6627 14.2839 27.6342 14.1281 27.5474 14.0293C27.43 13.8955 27.2394 13.813 26.9756 13.7818C26.7292 13.7527 26.5409 13.7746 26.4104 13.8477C26.2822 13.919 26.1747 14.0607 26.0881 14.2726L25.5857 14.1424C25.6627 13.9293 25.7638 13.7623 25.8891 13.6415C26.0146 13.5187 26.1832 13.4334 26.3949 13.3857C26.6068 13.3361 26.8457 13.327 27.1114 13.3584C27.3752 13.3896 27.5852 13.4459 27.7415 13.5273C27.8977 13.6087 28.008 13.7014 28.0724 13.8054C28.1371 13.9074 28.1749 14.0318 28.1861 14.1786C28.1911 14.2697 28.1775 14.4313 28.1452 14.6634L28.0482 15.3598C27.9806 15.8454 27.9485 16.1542 27.9518 16.2864C27.9573 16.4168 27.9848 16.5449 28.0343 16.6707L27.4873 16.606C27.4481 16.4912 27.4308 16.3604 27.4355 16.2135ZM27.5543 15.0418C27.3534 15.0967 27.0591 15.1288 26.6714 15.138C26.4518 15.1435 26.2947 15.1603 26.2001 15.1884C26.1055 15.2165 26.0287 15.2655 25.9697 15.3352C25.911 15.4029 25.8753 15.4823 25.8626 15.5732C25.8432 15.7125 25.8794 15.8347 25.9713 15.94C26.065 16.0455 26.2137 16.1102 26.4174 16.1343C26.6191 16.1582 26.8046 16.1359 26.9738 16.0674C27.1433 15.997 27.2755 15.8898 27.3705 15.7457C27.4432 15.6343 27.4955 15.4636 27.5276 15.2334L27.5543 15.0418ZM28.6773 16.7468L29.1063 13.6652L29.5776 13.7209L29.5126 14.1881C29.6633 13.9837 29.7939 13.8527 29.9044 13.795C30.0169 13.7375 30.1343 13.716 30.2565 13.7304C30.433 13.7513 30.6046 13.8286 30.7713 13.9624L30.5234 14.4256C30.4059 14.3351 30.2832 14.2822 30.1551 14.267C30.0407 14.2535 29.9331 14.2762 29.8322 14.335C29.7316 14.392 29.6534 14.4791 29.5977 14.5963C29.5136 14.7752 29.4563 14.9748 29.4256 15.1954L29.2009 16.8087L28.6773 16.7468ZM32.6719 17.2193L32.726 16.8305C32.4875 17.1129 32.1782 17.2317 31.7981 17.1867C31.5517 17.1576 31.3342 17.063 31.1456 16.9031C30.9588 16.7433 30.8251 16.5358 30.7443 16.2805C30.6657 16.0234 30.6484 15.7372 30.6923 15.4219C30.7351 15.1143 30.8253 14.8418 30.9628 14.6045C31.1006 14.3651 31.2816 14.1909 31.5058 14.0817C31.73 13.9726 31.9691 13.933 32.2232 13.9631C32.4094 13.9851 32.5697 14.0444 32.7042 14.1409C32.8389 14.2355 32.943 14.3511 33.0167 14.4876L33.2292 12.9613L33.75 13.0229L33.1577 17.2768L32.6719 17.2193ZM31.2305 15.4856C31.1756 15.8802 31.2179 16.1851 31.3575 16.4002C31.4971 16.6153 31.6804 16.7363 31.9073 16.7631C32.1362 16.7902 32.3431 16.7203 32.528 16.5534C32.7151 16.3848 32.8353 16.109 32.8886 15.726C32.9474 15.3042 32.909 14.9851 32.7735 14.7685C32.6381 14.5519 32.4511 14.4295 32.2125 14.4013C31.9797 14.3738 31.7716 14.4455 31.5881 14.6165C31.4066 14.7877 31.2874 15.0774 31.2305 15.4856Z" fill="white"/>
</svg>
