<svg width="39" height="24" viewBox="0 0 39 24" fill="none" xmlns="http://www.w3.org/2000/svg">
<path d="M2.63929 0.286255H37.3511C37.7996 0.29736 38.2251 0.471421 38.5348 0.770674C38.8444 1.06993 39.0131 1.46997 39.0039 1.88344V21.8476C39.0131 22.2611 38.8444 22.6611 38.5348 22.9604C38.2251 23.2597 37.7996 23.4337 37.3511 23.4448H2.63929C2.19079 23.4337 1.76518 23.2597 1.4555 22.9604C1.14583 22.6611 0.9772 22.2611 0.986335 21.8476V1.88434C0.976933 1.47071 1.14556 1.07058 1.45526 0.771124C1.76496 0.471671 2.19061 0.297359 2.63929 0.286255Z" fill="#F1F1F1"/>
<path d="M1.39805 22.9006C1.13261 22.6051 0.988042 22.2331 0.989387 21.8494V1.88434C0.979985 1.47071 1.14849 1.07058 1.45819 0.771124C1.76789 0.471671 2.19354 0.297359 2.64222 0.286255H37.3531C37.7745 0.287126 38.1786 0.440513 38.4783 0.713551L1.40305 22.9006H1.39805Z" fill="white" fill-opacity="0.73"/>
<path d="M15.6247 16.8349L16.9237 14.6701L16.2002 9.47104H17.97L18.2559 12.548L19.9877 9.47104H21.8145L17.6083 16.8349H15.6247ZM10.0753 12.9515C10.3481 11.6858 11.6742 11.2841 13.6349 11.2841C13.7518 10.7213 13.3631 10.5802 12.7016 10.6013C12.1183 10.6274 11.5449 10.7501 11.0087 10.9634L11.1635 9.69863C11.8073 9.51426 12.474 9.40612 13.1473 9.37703C14.3725 9.35676 15.7346 9.71731 15.4238 11.1847L14.6652 14.6391H12.8954L13.0113 14.1155C12.8059 14.3109 12.5603 14.4669 12.2889 14.5739C12.0174 14.6808 11.7256 14.7367 11.4305 14.7385C10.592 14.7348 9.84553 14.2315 10.0764 12.9474L10.0753 12.9515ZM11.8851 12.871C11.8294 12.9437 11.7978 13.0299 11.794 13.1188C11.7902 13.2077 11.8145 13.296 11.8639 13.3725C11.9133 13.449 11.9855 13.5108 12.0721 13.5501C12.1587 13.5895 12.2559 13.6047 12.3518 13.5942C12.5708 13.6032 12.7858 13.539 12.9575 13.4134C13.1292 13.2878 13.2459 13.1096 13.2861 12.911C13.3093 12.7557 13.3427 12.6019 13.3861 12.4504H12.9384C12.739 12.4334 12.5381 12.4625 12.3542 12.5354C12.1702 12.6083 12.0089 12.7223 11.8851 12.8674V12.871ZM3.97937 14.6391L5.44238 8.03217H8.74719C9.04179 8.02976 9.33275 8.09261 9.59562 8.21523C9.85849 8.33786 10.0856 8.51675 10.258 8.73699C10.4304 8.95722 10.543 9.21232 10.5863 9.48093C10.6296 9.74955 10.6024 10.0237 10.507 10.2806C10.4119 10.8848 10.0833 11.437 9.58171 11.8356C9.08008 12.2341 8.43916 12.4527 7.77689 12.4504H6.39475L5.92009 14.6391H3.97937ZM6.67057 11.1847H7.58C7.84602 11.1652 8.09789 11.0661 8.29778 10.9032C8.49766 10.7402 8.63474 10.5216 8.68826 10.2806C8.73021 10.1815 8.7456 10.0748 8.73316 9.96895C8.72071 9.86314 8.6808 9.76156 8.61678 9.67299C8.55275 9.58442 8.46651 9.51157 8.36536 9.46024C8.26421 9.40891 8.15106 9.38043 8.03562 9.37793H7.08631L6.67057 11.1847Z" fill="#3284AE"/>
<path d="M27.2808 12.9473C27.5567 11.6816 28.8967 11.2813 30.8844 11.2813C31.0223 10.7176 30.6287 10.5783 29.9591 10.5985C29.3634 10.6268 28.7773 10.749 28.2263 10.9597L28.3841 9.69492C29.0434 9.51285 29.7244 9.40508 30.4118 9.37422C31.652 9.35396 33.01 9.71407 32.6952 11.1806L31.9278 14.634H30.1559L30.2738 14.1127C29.8446 14.508 29.2637 14.732 28.6569 14.7357C27.7995 14.7347 27.044 14.2323 27.2808 12.9473ZM29.1126 12.8673C29.0588 12.9424 29.0295 13.0304 29.0283 13.1205C29.0272 13.2105 29.0543 13.2988 29.1063 13.3751C29.1583 13.4513 29.2329 13.5123 29.3214 13.5505C29.4099 13.5887 29.5085 13.6026 29.6053 13.5905C29.823 13.5995 30.0367 13.5351 30.2069 13.4097C30.3771 13.2843 30.4921 13.1063 30.5306 12.9086C30.5696 12.7474 30.5897 12.6065 30.6307 12.4481H30.1978C29.993 12.429 29.7863 12.4574 29.5963 12.5304C29.4063 12.6034 29.239 12.7188 29.1096 12.8664L29.1126 12.8673ZM32.7462 14.634L34.2113 8.00732H36.03L34.546 14.634H32.7462ZM21.1849 14.634L22.646 8.02846H25.9437C26.2375 8.02773 26.5272 8.09156 26.7889 8.21468C27.0505 8.3378 27.2766 8.51668 27.4482 8.73643C27.6199 8.95617 27.7322 9.21035 27.7759 9.47812C27.8196 9.74589 27.7934 10.0195 27.6995 10.276C27.6043 10.8823 27.2739 11.4361 26.7695 11.835C26.2651 12.2339 25.6209 12.4508 24.9563 12.4454H23.5943L23.1007 14.6331L21.1849 14.634ZM23.8702 11.1806H24.7575C25.0257 11.1615 25.2801 11.0636 25.483 10.9008C25.6858 10.738 25.8264 10.5191 25.8838 10.2769C25.9236 10.1764 25.9368 10.0687 25.9223 9.96254C25.9077 9.85639 25.866 9.75486 25.8004 9.66658C25.7348 9.5783 25.6473 9.50604 25.5452 9.45518C25.4431 9.40433 25.3293 9.37639 25.2133 9.37422H24.2659L23.8702 11.1806Z" fill="#3CA9C7"/>
</svg>
