<svg width="39" height="24" viewBox="0 0 39 24" fill="none" xmlns="http://www.w3.org/2000/svg">
<path d="M1.66659 0.320068H36.6253C36.8484 0.32414 37.0684 0.368923 37.2728 0.451406C37.4773 0.533889 37.6621 0.652558 37.8167 0.800889C37.9713 0.94922 38.0927 1.12431 38.174 1.31589C38.2552 1.50748 38.2946 1.71205 38.2901 1.91771V21.8846C38.2989 22.2998 38.1285 22.7011 37.8163 23.0005C37.5041 23.2999 37.0757 23.4727 36.6253 23.4809H1.66659C1.21617 23.4727 0.787712 23.2999 0.475494 23.0005C0.163276 22.7011 -0.0071445 22.2998 0.00168906 21.8846V1.91771C-0.00281778 1.71205 0.036707 1.50748 0.117945 1.31589C0.199182 1.12431 0.32052 0.94922 0.475128 0.800889C0.629736 0.652558 0.814526 0.533889 1.01895 0.451406C1.22338 0.368923 1.44348 0.32414 1.66659 0.320068Z" fill="#353A40"/>
<path d="M22.6756 15.5787C22.4114 15.4549 22.1941 15.2599 22.0521 15.0201C21.8818 14.7266 21.799 14.397 21.8123 14.0643C21.7976 13.8376 21.8318 13.6104 21.9132 13.3959C21.9945 13.1815 22.1213 12.9842 22.286 12.8153C22.4611 12.6615 22.6686 12.5425 22.8957 12.4658C23.1228 12.3891 23.3646 12.356 23.606 12.3691C23.8493 12.3546 24.0932 12.3862 24.3228 12.4617C24.5524 12.5373 24.7628 12.6553 24.9412 12.8085C25.1044 12.9743 25.2298 13.1685 25.3103 13.3797C25.3908 13.5909 25.4247 13.8148 25.4099 14.0382C25.4247 14.3622 25.3561 14.6847 25.2099 14.9796C25.0778 15.2197 24.8722 15.4187 24.6184 15.5518C24.3212 15.6966 23.988 15.7673 23.652 15.7564C23.316 15.7676 22.9817 15.7068 22.6756 15.5787ZM23.0813 13.3523C22.9525 13.5719 22.885 13.8174 22.885 14.067C22.885 14.3166 22.9525 14.5622 23.0813 14.7817C23.1493 14.8497 23.2319 14.9038 23.3237 14.9409C23.4156 14.9781 23.5147 14.9976 23.615 14.9976C23.7153 14.9976 23.8145 14.9781 23.9063 14.9409C23.9982 14.9038 24.0807 14.8497 24.1486 14.7817C24.3001 14.5539 24.3668 14.2866 24.3385 14.0207C24.3601 13.7807 24.2894 13.5414 24.1387 13.3447C24.0727 13.2742 23.9901 13.2187 23.8973 13.1818C23.8045 13.145 23.704 13.1278 23.6031 13.1319C23.5036 13.1293 23.4049 13.1477 23.3144 13.1859C23.224 13.2241 23.1442 13.2812 23.0813 13.3523ZM13.1759 15.7231C13.0018 15.7073 12.8323 15.6617 12.6763 15.5886C12.5348 15.5175 12.4099 15.4213 12.3086 15.3057C12.2049 15.1961 12.1269 15.0681 12.0798 14.9293C12.0184 14.7503 11.9848 14.5641 11.9798 14.3765V12.4253H13.0501V14.4223C13.0453 14.4983 13.0568 14.5746 13.0841 14.6463C13.1114 14.7181 13.1539 14.7841 13.209 14.8406C13.3303 14.9367 13.4848 14.9895 13.6446 14.9895C13.8045 14.9895 13.9591 14.9367 14.0804 14.8406C14.1355 14.7835 14.1778 14.7168 14.2049 14.6445C14.232 14.5723 14.2433 14.4959 14.2382 14.4196V12.4226H15.3086V14.3738C15.3091 14.5619 15.2753 14.7488 15.2086 14.9266C15.147 15.0957 15.0445 15.2495 14.9088 15.3768C14.7891 15.4971 14.6421 15.5913 14.4782 15.653C14.2371 15.7303 13.9828 15.7673 13.7276 15.7618C13.5434 15.7584 13.3596 15.7452 13.177 15.7222L13.1759 15.7231ZM28.3049 15.7011L27.0057 13.9028V15.7011H25.9964V12.4262H26.9957L28.3039 14.2375V12.4262H29.3152V15.7011H28.3049ZM18.3335 15.7011L17.0345 13.9028V15.7011H16.0251V12.4262H17.0245L18.3316 14.2375V12.4262H19.3429V15.7011H18.3335ZM20.1024 15.6925V12.4235H21.1816V15.6925H20.1024ZM11.9029 11.1043C11.6715 10.8833 11.5341 10.5932 11.516 10.2866L12.5375 10.2267C12.5481 10.3545 12.5942 10.4773 12.6713 10.5839C12.727 10.6499 12.7991 10.7025 12.8816 10.7373C12.9641 10.7721 13.0544 10.7883 13.145 10.784C13.2729 10.7919 13.3995 10.7551 13.4998 10.6815C13.5374 10.6541 13.5678 10.6194 13.5889 10.5798C13.61 10.5402 13.6212 10.4967 13.6218 10.4525C13.6224 10.4084 13.6122 10.3649 13.5922 10.3248C13.5721 10.2847 13.5426 10.2491 13.5058 10.2209C13.3397 10.1217 13.1521 10.0569 12.9561 10.0311C12.5909 9.97472 12.2458 9.83857 11.9498 9.63348C11.8523 9.55516 11.7747 9.45759 11.7228 9.34832C11.671 9.23904 11.6461 9.12075 11.65 9.00153C11.6505 8.8323 11.7043 8.66677 11.8049 8.52521C11.9188 8.3673 12.0814 8.2446 12.2716 8.17258C12.5439 8.07645 12.8347 8.03272 13.1261 8.04439C13.4827 8.02245 13.8379 8.10421 14.1414 8.27828C14.2638 8.36757 14.3642 8.48011 14.4358 8.60797C14.5075 8.73583 14.5489 8.87625 14.5571 9.01997L13.5457 9.0762C13.5325 8.95379 13.4723 8.83966 13.3759 8.7546C13.2739 8.68281 13.1472 8.64728 13.0191 8.6543C12.9185 8.64754 12.8186 8.67404 12.7373 8.72896C12.7073 8.75103 12.6832 8.7789 12.6668 8.81082C12.6503 8.84274 12.642 8.87759 12.6424 8.91292C12.6432 8.94051 12.6507 8.96753 12.6643 8.99209C12.678 9.01664 12.6974 9.03837 12.7213 9.05506C12.8304 9.11911 12.9536 9.15991 13.082 9.1747C13.4294 9.23398 13.7679 9.33104 14.0904 9.46391C14.2722 9.54425 14.4257 9.67041 14.5331 9.82779C14.6259 9.97444 14.6736 10.1415 14.671 10.3113C14.6723 10.5175 14.608 10.7195 14.4861 10.8924C14.3608 11.0709 14.1811 11.2113 13.9695 11.2959C13.7043 11.3945 13.4198 11.4416 13.134 11.4335C12.6926 11.476 12.2508 11.3573 11.9029 11.1034V11.1043ZM28.3059 11.3715L27.0068 9.57276V11.3715H25.9975V8.09701H26.9968L28.3049 9.90875V8.09701H29.3162V11.3715H28.3059ZM24.4335 11.3715L23.8599 10.3702C23.8137 10.2753 23.7475 10.1898 23.665 10.1188C23.5882 10.0681 23.4957 10.0413 23.4012 10.0423H23.3063V11.3715H22.2279V8.09701H24.0158C24.2722 8.08773 24.5287 8.11468 24.7762 8.17707C24.9501 8.22943 25.0997 8.33402 25.201 8.47438C25.3121 8.63197 25.3683 8.81728 25.3619 9.00513C25.3664 9.16925 25.324 9.33179 25.2389 9.47605C25.1566 9.6072 25.0398 9.71683 24.8992 9.7954C24.7818 9.85689 24.6546 9.90112 24.5224 9.92629C24.6215 9.95329 24.7159 9.99354 24.8022 10.0459C24.8665 10.0972 24.9238 10.1553 24.9731 10.2191C25.0302 10.2822 25.0807 10.3502 25.124 10.422L25.6437 11.3715H24.4335ZM23.3072 9.42253H23.76C23.8559 9.41616 23.9508 9.40104 24.0437 9.378C24.1133 9.36481 24.1753 9.32855 24.2177 9.2759C24.2627 9.2211 24.2866 9.15396 24.2856 9.08519C24.2887 9.03972 24.2807 8.9943 24.2622 8.95205C24.2437 8.90981 24.2151 8.8717 24.1786 8.84096C24.059 8.77321 23.9185 8.74391 23.7789 8.7573H23.3072V9.42253ZM18.7103 11.3715V8.09701H21.5864V8.79598H19.7876V9.31638H21.4585V9.98521H19.7876V10.6302H21.6414V11.3715H18.7103ZM16.06 11.3715V8.90573H14.9658V8.09701H18.2286V8.90573H17.1294V11.3715H16.06ZM8.20026 11.3715V8.09701H11.0764V8.79598H9.27755V9.31638H10.9475V9.98521H9.26962V10.6302H11.1214V11.3715H8.20026ZM6.03472 11.3715L5.42611 9.30918L4.81958 11.3715H3.76731L2.99475 8.09701H4.01409L4.38091 9.92989L4.91852 8.09701H5.93383L6.47241 9.92809L6.83923 8.09701H7.85357L7.08809 11.3715H6.03472Z" fill="#ECD345"/>
<path d="M34.103 15.7583V8.03906H35.3021V15.7583H34.103ZM31.115 15.7583V8.03906H32.3141V15.7583H31.115Z" fill="#ECD345"/>
</svg>
