<svg width="27" height="9" viewBox="0 0 27 9" fill="none" xmlns="http://www.w3.org/2000/svg">
<path d="M24.9396 9.00599L24.6878 7.81316H21.9556L21.5069 9.00599H19.2664L22.4713 1.57688C22.5458 1.39265 22.6824 1.23511 22.8609 1.12754C23.0395 1.01998 23.2507 0.968096 23.4636 0.979114H25.1915L26.9123 9.00689L24.9396 9.00599ZM23.7045 3.16192L22.5752 6.16604H24.34L23.7045 3.16192ZM16.4223 3.26717C16.4223 4.14412 19.4203 4.33178 19.4203 6.3482C19.4203 8.29001 17.2068 9.00419 15.7408 9.00419C14.9075 9.01689 14.0808 8.86741 13.3144 8.56565L13.6341 6.82453C14.5136 7.48776 17.1809 7.67681 17.1809 6.62392C17.1809 5.57104 14.2079 5.54599 14.2079 3.54154C14.2079 1.41182 16.7401 0.973267 17.8054 0.973267C18.4653 0.988859 19.1179 1.1032 19.7381 1.31151L19.4313 2.97796C18.5139 2.50633 16.4204 2.39383 16.4204 3.27077L16.4223 3.26717ZM9.84273 9.00599L11.1858 0.977764H13.3354L11.9923 9.00599H9.84273ZM4.68919 9.00599L2.82434 2.04016C3.15377 2.22982 3.46808 2.44103 3.76475 2.67211C4.66117 3.37918 5.34324 4.28827 5.74439 5.311L5.98727 6.50023L8.03693 0.979114H10.3503L6.93061 9.00689L4.68919 9.00599ZM0.897649 1.19816L0.79774 1.17072L0.897649 1.19816ZM0.677824 1.13834L0.629883 1.12619L0.677824 1.13834ZM1.20652 1.29486L1.07856 1.25348L1.20652 1.29486ZM2.6965 1.96279C2.62988 1.92472 2.56318 1.88805 2.49656 1.85305C2.56051 1.89358 2.62647 1.9286 2.69442 1.96729L2.6965 1.96279ZM2.1828 1.69562C2.12484 1.66799 2.06495 1.63865 2.00799 1.61286C2.06296 1.64326 2.12189 1.67249 2.18085 1.70012L2.1828 1.69562ZM1.64812 1.45904L1.53028 1.41181L1.64812 1.45904Z" fill="#494CA3"/>
</svg>
